<svg version="1.2" xmlns="http://www.w3.org/2000/svg" viewBox="0 220.00000000000003 800.0000000000002 400.0000000000001" width="801" height="401">
	<title>Novo Projeto</title>
	<style>
		.s0 { fill: #ededed } 
	</style>
	<g id="Layer 1">
		<path id="My name is Pedro I Dev for a Liv" class="s0" aria-label="My name is Pedro
I Dev for a Living"  d="m156 408.3c0-0.1-0.3-0.6-1-1.5-0.5-0.9-0.9-1.4-0.9-1.5-1.5-0.2-2.8-0.3-3.6-0.3-1.2 1.7-2.2 3-2.8 4-3.4 3.9-7 9-10.9 15.3-3.7 6-6.4 10.1-7.8 12.3-3.3 5.3-5.2 8.6-5.9 9.7-0.4 0.7-0.9 1.4-1.3 2.2-0.9 1.2-1.5 1.9-2 2-0.2 0.1-0.5 0.1-0.6 0 0-0.5-0.1-2.2-0.3-4.9 0-0.3 0.1-1 0.1-2.3 0.2-1.3 0.2-2.2 0.3-2.8 0.3-5.9 0.5-9 0.6-9.3 0.2-0.4 0.4-0.6 0.4-0.6v-6.3c0-1.1-0.6-2-1.7-2.7-1.3-0.6-2.5-0.7-3.8-0.3-4 6.4-6.9 11.2-8.8 14.3-0.4 0.8-0.5 1.4-0.5 1.8-2.8 4.9-6 11-9.7 18.2-3.7 7.7-5.7 11.9-5.7 12.9 0 3 1.2 4.3 3.7 3.7 0.9-0.2 1.4-0.8 1.8-1.6 3.1-6.7 5.2-11.2 6.3-13.6 4.1-9 6.3-13.9 6.7-14.6 2.2-4 3.7-6.1 4.4-6.6v12.8c0 9.7 1.7 14.1 5 13.3 0.7-0.1 2-1.4 4-3.7 1.7-1.9 2.7-3.1 3.1-3.6 6.3-9.9 10.8-17.2 13-21.6 0.8-1.8 1.3-3.1 1.6-3.6 2.6-4.2 4.5-6.8 5.7-7.8l-1.5 5c0 0 0.2 0.2 0.3 0.8-2.3 6.8-3.8 12.8-4.4 17.9-0.1 0.4-0.2 1.1-0.4 2.1-0.2 0.9-0.3 1.4-0.3 1.4 0-0.3 0.1-0.1 0.3 0.7-0.1 4.6 0.4 7.8 1.5 9.4 0.3 0.4 0.9 0.8 1.8 1.3 0.9 0.4 1.5 0.6 1.8 0.5 0.5-0.1 0.9-0.4 1.4-0.7 0.2-1 0.3-1.5 0.3-1.5 0-0.1-0.2-1.3-0.6-3.5-0.4-2.3-0.6-3.4-0.6-3.5 0-1.3 0.6-4.9 1.9-10.4 0.3-1.8 0.8-4.1 1.2-6.9 1.2-3.8 1.9-6.2 2.3-7.5 0.9-2.8 1.5-5.3 2-7.6 0.7-1.5 1.5-3 2.3-4.5 0.9-3.6 1.3-5.7 1.3-6.3zm33.4 27.7c0-1.4-0.6-2.7-1.5-3.9l-3.2 0.7c-0.7 1-1.2 1.7-1.5 2.2-2.9 2.5-4.8 4.2-5.9 5.2-2.4 2.1-4.8 3.6-7.1 4.6-0.5 0.2-1.7 0.8-3.5 1.7-1.5 0.8-2.4 1.2-2.4 1.2-2 0.5-3.7-0.1-4.8-1.8-0.3-2.6-0.5-4.2-0.6-4.8-0.5-3.2-1.7-4.5-3.5-4.1-0.7 0.2-1.4 1.1-2.1 2.9-0.3 0.7-0.5 2.2-0.5 4.4 0 2.1 0.4 3.6 1.1 4.2 0.1 0.2 0.1 0.2 0.2 0.3 0 0.2-0.1 0.3-0.2 0.5 0.4 1.5 1.1 2.7 2.1 3.6 0.3 0.3 1.3 0.8 2.7 1.3 1.7 0.6 3 0.7 3.9 0.5 0.2 0 0.3-0.1 0.6-0.2 0.2-0.2 0.4-0.3 0.5-0.3 0.1 0 0.6 0 1.5 0 1 0.1 1.5 0 1.6 0 1.9-0.4 4.4-1.7 7.5-3.8l0.4 0.3c-5.3 14.2-8.2 22-8.4 23.5-0.5 0.7-0.8 1.3-1.1 1.6-0.5 2.2-0.9 3.4-1 3.7-1.1 3.2-1.6 5.3-1.6 6 0 1.2 0.4 2.1 1.2 2.7 0.7 0.7 1.6 0.9 2.8 0.6 1.2-0.3 1.9-0.8 2.1-1.6 0.6-2.6 1-4 1.1-4.4 0.6-1.8 1.2-3.2 1.6-4.2 0.8-3.8 1.3-5.8 1.3-5.8 0.5-1.1 0.9-1.9 1.3-2.4 0-0.7-0.1-1.2-0.2-1.5 1.2-2.1 2-3.6 2.3-4.6 0.7-2 1.2-3.4 1.5-4.3 0.3-0.8 0.6-1.2 1.2-1.3 0.2-1.5 0.4-2.4 0.6-2.7 0.5-0.8 0.9-1.4 1.3-1.7 0.3-0.8 0.5-1.1 0.6-1.1l0.1-0.2v-0.4c1.5-3.2 2.4-5.2 2.7-6.2 0.6-0.7 1.1-1.3 1.6-1.7 0.6-1.1 1.4-2.7 2.3-4.9 0.9-2.1 1.4-3.4 1.4-3.8zm61.9-5.1c0-4.6-0.6-8.3-1.7-11-1.1-1.4-1.9-2.5-2.5-3.2-2.4-2.6-4.8-3.6-7-3-0.1 0-2.1 1.3-5.8 3.9-3.8 2.7-5.7 4-5.9 4-0.3 0.1-0.9-0.2-1.7-0.6-0.9-0.5-1.4-0.9-1.5-1.2 0 0-0.3 0.1-0.9 0.4-0.6 0.3-0.9 0.4-1 0.4-1 2.2-1.6 3.5-1.7 4-0.1 0.8-0.3 1.4-0.3 1.8-0.9 2.1-1.3 3.4-1.3 4 0 1.5 0.4 2.9 1.3 4.4 1 1.6 2.3 2.3 3.9 1.9 0.6-0.1 2.1-2.1 4.8-5.8 2.4-3.4 4-5.4 4.7-6.2 1.3-0.9 2.2-1.6 2.8-2.1 1.1-0.8 2-1.4 2.8-1.6 0.7-0.1 1.3-0.1 1.5 0.1 1.4 4 2.1 7.1 2.1 9.2 0 1.9 0.6 3.6 1.8 5.2 0.4 0 1.1 0.1 2 0.3 0.7 0.2 1.3 0.3 1.5 0.3 1.4-0.4 2.1-2.1 2.1-5.2zm39.2-5.9c0-0.2-0.3-0.5-0.7-0.8-1.2-0.3-3.3-1.4-6.3-3.1-2.7-1.7-4.2-2.4-4.7-2.3-1.9 0.5-4.4 1.6-7.5 3.4-3.2 1.8-4.5 2.6-4.1 2.5-1.3 0.3-2.1 0.2-2.2-0.4 1.2-1.4 2.9-2.9 5-4.4 1.6-1.2 3.3-2 4.8-2.4 1.5-0.3 3.5-0.1 6.1 0.8 1.3-1.1 1.9-2.2 1.9-3.3 0-0.6-0.4-1.4-1.1-2.5-0.8-1.1-1.4-1.7-1.9-1.7-1.8-0.3-3.2-0.2-4.2 0.1-3.8 0.9-8 3.3-12.6 7.1-1 0.7-1.6 1.2-1.9 1.4-1.1 0.7-1.7 1.4-1.9 2-0.9 2.4-1.3 4.3-1.3 5.6 0 1.1 0.4 2 1.3 3.1 2.6 1.7 4.8 2.4 6.5 2 1.5-0.4 2.9-0.9 4.3-1.7 0.4-0.2 1.6-1.1 3.7-2.5 1.7-1.1 2.9-1.8 3.7-2 0.1 0 1.3 0.3 3.7 1 4 1.2 6.3 1.7 7.2 1.7 0.6-0.1 1.1-0.6 1.5-1.3 0.5-0.8 0.7-1.6 0.7-2.3zm61.1-11.1c0-0.7-0.2-2-0.5-4-0.2-1.7-0.3-3.1-0.2-4.3 0.3-3.4 0.3-6.1 0-8-1.1-1.8-2.1-3.2-3-4.1-0.8-0.1-1.4-0.5-1.7-1.2-3.1 0.6-6 1.9-9 4-3.5 2.9-5.9 5-7.1 6.1-1.3 1.1-2.1 1.8-2.5 2.1-1.4 1.7-2.5 2.6-3.3 2.8-0.3 0-0.5 0-0.6-0.1 0.1-2.6-0.1-5.3-0.6-8-0.1-0.5-0.9-1.3-2.3-2.6-1.8-1.6-3.3-2.3-4.8-2-2 0.5-5.2 2.8-9.6 7-3.5 3.3-5.8 5.5-7.1 6.8l-1.5-2.3c-0.7-0.9-1.6-1.3-2.8-1-1.1 0.3-2.2 2.6-3.1 7-0.8 3.3-1.1 5.7-1.1 7.2 0 0.3 0.4 0.9 1.1 1.8 0.9 1 1.8 1.5 2.6 1.3 1.2-0.3 3.2-2.1 6-5.5 2.2-2.6 3.6-4.5 4.6-5.5 2.2-2.4 3.8-4.1 4.6-5 2.8-2.8 4.6-4.4 5.6-4.6 0.5-0.2 0.9-0.1 1.2 0.3 0.3 1.2 0.3 2.7 0.3 4.6 0 1.5 0 3.6-0.2 6.2-0.2 2.4-0.2 3.8-0.2 4.3 0.2 1.9 1.7 2.5 4.4 1.9 1.2-0.3 2-0.7 2.6-1.3l9.8-9.9c4.2-4.3 7.6-6.8 10.2-7.5 0.3 0.2 0.5 0.3 0.7 0.5 0.1 6.1 0.7 10 1.8 11.6 0.2 0.5 0.2 1 0.2 1.2 1.1 1 2 1.4 2.8 1.2 0.2-0.1 0.6-0.2 1.3-0.5 0.7-0.3 1.2-0.4 1.4-0.5zm28.1-24c-0.3 0.8-1.8 1.4-4.1 2l-11.2 2.7c-0.3 0-0.3-0.1-0.3-0.5 0-0.4 0.5-1.1 1.6-2.1 1-1 2-1.6 2.7-1.9 2.6-1.1 6.3-2.4 8.9-3.2 1.1 0.3 1.7 0.5 1.7 0.7 0.3 0.8 0.6 1.6 0.7 2.3zm6.5-4.1c-1.2-1.4-2.4-2.5-3.6-3.3-1.6-1-3.9-1.2-7-0.4-9.7 2.3-16.1 6.9-19.3 13.9-0.3 0.9-0.6 2.3-0.6 4.1 0 1.4 0.7 2.8 2.2 4.2 1.5 1.4 3.1 2.2 4.9 2.4 1.3 0.4 2.3 0.7 2.8 0.8 1.6 0.3 2.8 0.4 3.4 0.3 0.2-0.1 1.3-0.3 3.3-0.6 2.1-0.3 3.2-0.5 3.3-0.5-0.3 0 0.4-0.2 2.2-0.8 0.8-1 1.2-1.6 1.3-1.7 1.6-1.1 2.5-1.9 2.5-2.2 0-0.9-1.4-1.3-4-1-2 0.3-3.4 0.5-4.2 0.7-7.4 1.2-10.1-0.7-10.1-1.3 0 0 0.2-0.2 0.5-0.6 0.9-0.2 1.4-0.2 1.7-0.1 2.2-1 6.6-1.8 6.4-1.8l5.7-1.7c3.8-1.1 6.3-2.2 7.5-2.5 0.7-0.6 1.1-1.9 1.3-4 0.2-1.9 0.1-3.2-0.2-3.9zm39.6-11.6c-0.4-1.3-1.1-1.9-2.1-1.6-0.8 0.2-1.5 0.7-2.1 1.6-0.6 3.3-1.1 7.1-1.4 11.2-0.3 2.7-0.3 4.1-0.3 4.4 0.1 0.2 0.5 0.9 1.2 1.8 0.6 0.7 0.8 1.3 0.8 1.8 1.5 0.2 2.4 0.2 2.8 0.1l0.8-0.4c0.5-2.2 0.8-3.4 0.7-3.7-0.2-9.9-0.4-15-0.4-15.2zm2-14.9c0-1.2-0.3-2.5-0.9-3.7-1.5 0.5-2.4 0.9-2.8 1-0.9 1.7-1.3 3.1-1.3 4.2 0 1.1 1.1 1.8 3.2 1.9 1.2-1.7 1.8-2.9 1.8-3.4zm34.6 18.1c0-0.1-0.1-0.4-0.4-0.7-0.3-0.4-0.4-0.5-0.4-0.6-0.2-1.2-0.5-1.9-0.9-2.2-0.8-0.8-1.7-1.3-2.8-1.5-0.9-0.2-2-0.4-3.1-0.5l-0.4-0.1c-1.9-0.2-3-0.3-3.5-0.4-2.2-0.1-3.6-0.1-4.4-0.1-0.7-0.2-1.2-0.5-1.5-1 1.6-1.1 2.9-1.8 4.1-2.1 0.1 0 0.3 0 0.5 0 0.3 0 0.5 0 0.6 0 0.2-0.1 0.5-0.2 1-0.6 0.6-0.4 0.8-0.5 0.8-0.5 5.7-2 8.9-3.2 9.6-3.5 0.8-0.6 1.2-1.5 1.2-2.7 0-0.6-0.6-1.5-1.9-2.6-0.2-0.2-0.8-0.2-1.6 0-3.1 0.8-7.1 2.1-11.9 4.1-4.8 2-8.4 3.7-10.9 5.3-2.4 1.5-3.3 2.7-3 3.6 0.2 0.5 0.3 0.6 0.3 0.4 0 1.3 0.2 2.2 0.7 2.5 1.7 0.7 2.8 1.1 3.6 1.2 0.7 0.2 3 0.6 7 1.3 3.9 0.7 6.1 1.2 6.9 1.6 0 0.1 0 0.2 0 0.4-1.5 1.2-4.3 2.7-8.5 4.5l-9.8 4.2c-0.7 1-1 1.6-1 1.7 0 0.4 0.3 0.9 0.9 1.5 0.6 0.7 1.1 0.9 1.4 0.9 0.1-0.1 0.4-0.2 1.1-0.5 0.7-0.4 1.1-0.5 1.2-0.6 0.1 0 0.6 0 1.3 0 0.8-0.1 1.3-0.1 1.4-0.1 2.2-0.6 5.7-2.1 10.4-4.6 4-2.2 6.8-3.7 8.3-4.6 0.8-0.4 1.6-1.1 2.5-1.9 0.8-0.9 1.2-1.5 1.2-1.8zm69.9-52.8c3.1 0.4 4.4 1.3 4.4 2.4 0 0.1-0.4 0.9-1.3 2.8-6.1 5.1-10.2 8.6-12.5 10.4l-1.3 0.9c-9.8 6.1-14.8 9-15.3 9.2l-1.3 0.3c0.5-2.3 0.7-4.1 0.8-5.2 1.9-5.5 3-8.9 3-9.8 0-1.4-1.1-2.2-2.8-2.6 3.6-2 6.2-3.3 7.8-3.8 1.9-0.8 3.4-1.5 4.5-2.1 3.5-1.2 6.3-2.1 8.2-2.6 1.4-0.3 3.3-0.3 5.8 0.1zm10 6.1c0.8-1.2 1.2-2.9 1.2-4.8 0-0.9-0.6-2.4-1.7-4.2-1-1.1-1.8-1.9-2.5-2.4-0.8-0.1-1.3-0.2-1.7-0.1-0.4-0.6-1.1-0.9-2-1-5-0.4-8.8-0.3-11.5 0.4-1.2 0.2-3.8 1.1-7.7 2.6-2.9 1-6.3 2.6-10.6 4.5-2.8 1.4-4.8 2.6-5.9 3.8-0.5 0.2-0.8 0.3-1.1 0.4-1.7 1.3-2.8 2.1-3.7 2.7-0.4 0.4-0.8 1.2-1.4 2.3-0.6 1.1-1 1.9-1 2.4 0.9 1.9 1.8 3.1 2.9 2.9 0.4-0.1 0.9-0.5 1.9-1.1 0.4-0.8 0.5-1 0.5-1.1 3-2 4.8-3.3 5.6-3.8 0.2-0.1 0.4-0.2 0.4-0.2-2 2.9-3.5 7-4.6 12.2-0.4 1-0.6 1.7-1 2.3-0.5 2.9-1 5.1-1.3 6.7-0.6 1.1-1.2 1.7-1.9 2-0.8 0.4-1 1.3-1 2.3 0 1.2 0.2 1.8 0.3 1.8 0.9 0.6 1.7 2.1 1.9 5 0 0.5 0 2.5 0 6.3 0.2 0.6 0.6 1.4 1.3 2.1 0.7 0.7 1.3 1.3 2 1.4l1.5-0.3c0.5-1.6 0.7-2.8 0.9-4.1 0.9-4 1.1-7.8 1.1-11.6 0.3-1 1-1.8 2.5-2.5 5.5-2.9 8.8-4.6 9.8-5.2 0.4-0.3 0.5-0.6 0.7-0.8 13-7 21.8-14 26.1-20.9zm26.6 13.7c-0.4 0.8-1.8 1.5-4.2 2l-11.1 2.7c-0.3 0.1-0.4-0.1-0.4-0.4 0-0.5 0.5-1.1 1.7-2.2 1-0.9 1.9-1.5 2.6-1.8 2.7-1.1 6.4-2.4 8.9-3.2 1.1 0.2 1.7 0.5 1.8 0.7 0.2 0.7 0.5 1.5 0.7 2.2zm6.5-4.1c-1.2-1.4-2.4-2.5-3.6-3.2-1.6-1.1-3.9-1.2-7.1-0.5-9.7 2.3-16 6.9-19.2 13.9-0.4 1-0.7 2.3-0.7 4.1 0 1.4 0.8 2.9 2.3 4.2 1.4 1.4 3.1 2.2 4.9 2.5 1.3 0.3 2.2 0.6 2.7 0.7 1.7 0.4 2.8 0.5 3.5 0.3 0.2 0 1.3-0.2 3.3-0.6 2.1-0.3 3.2-0.5 3.2-0.5-0.2 0.1 0.5-0.2 2.2-0.8 0.8-1 1.3-1.5 1.3-1.6 1.7-1.2 2.5-2 2.5-2.2 0-1-1.4-1.3-4-1-2 0.2-3.4 0.5-4.2 0.6-7.4 1.2-10.1-0.6-10.1-1.2 0-0.1 0.2-0.3 0.5-0.7 0.9-0.2 1.5-0.2 1.8-0.1 2.1-0.9 6.5-1.8 6.3-1.7l5.7-1.7c3.9-1.2 6.4-2.3 7.5-2.6 0.7-0.5 1.2-1.9 1.3-4 0.2-1.9 0.2-3.2-0.1-3.9zm49.3-43.9c0 0.6-0.2-0.5-0.4-3.8-0.7-0.2-1.3-0.3-1.5-0.2-1.6 0.4-2.6 1-2.8 1.8-0.5 1.3-0.7 3.5-0.6 6.6 0.1 3.3 0.1 5.2-0.1 5.8 0.1 1.8 0.3 3.1 0.6 4-0.7 5.8-1.1 10.7-1.2 14.7-0.5 0.2-3.5 0.9-9.1 2.3-3.4 0.8-5.9 1.6-7.4 2.4-2.6 1.1-4.9 2.1-6.9 2.9-0.5 0.3-0.9 0.6-1.3 0.9-5.3 2.4-9.1 5.1-11.1 8-1.3 1.7-1.9 3.2-1.9 4.2 0 0.4 0.2 1.3 0.8 2.8 0.5 1.4 1.1 2.5 1.7 3.3 0.8 1 2 1.8 3.5 2.6 1 0.1 1.8 0.1 2.4 0l1.5 0.3 3.5-0.9c0.8-0.2 1.6-0.4 2.4-0.7 0.6-0.1 1-0.3 0.9-0.3 2.1-0.5 5.6-1.9 10.4-4.3 6.2-3.1 9.8-5 10.8-5.7 0.4-0.3 0.9-0.9 1.4-1.8 0.5-0.9 0.7-1.6 0.7-2 0-0.5-0.1-0.6-0.4-0.6l-0.8 0.2c-0.1 0-3.6 1.4-10.5 4.2-7 2.8-11.2 4.3-12.5 4.7-2.4 0.5-4.5 0.5-6.4-0.1-0.6-0.2-1.2-0.6-1.9-1.1-0.7-0.6-1-1.1-1-1.3 0-0.8 0.6-1.6 1.7-2.3 0.9-0.6 1.5-0.9 1.8-1.1 0.7-1.1 3.3-2.6 7.9-4.5 4.2-1.8 7.6-3 10.1-3.6l6-0.9c3.7-0.6 5.7-0.9 5.9-0.9h1.2c0.9-1.6 1.6-2.9 2-3.7 0.3-3.9 0.4-7.2 0.4-9.9 0-2.2-0.1-4.1-0.2-5.5 0.2-2.5 0.4-8.1 0.4-16.5zm46 19.7c-0.3-0.1-0.4-0.9-0.4-2.3l-3.3 0.4c-0.3-0.2-0.5-0.4-0.5-0.5-10.5 0.8-16.2 1.3-16.9 1.5-2.6 0.6-4.9 1.5-6.9 3-2.4 1.8-4.3 3.2-5.5 4.1 0 0-0.4 0.4-1.1 1.2-0.8 0.8-1.2 1.3-1.4 1.3-0.2 0-0.5 0-1-0.1-0.5-0.1-0.8-0.2-0.8-0.2-1 0.3-2.1 1.8-3.2 4.8-0.2 1.6-0.4 3.9-0.7 6.8-0.2 2.5-0.4 4-0.4 4.5 0 3 1.1 4.1 3.4 3.6 1-0.3 2-0.7 2.9-1.2 0.6-2.6 0.8-4.5 0.8-6 0.3-0.4 0.6-0.7 0.7-0.8 0.6-2.8 1.2-4.7 1.8-5.8 2.6-4.7 7-7.9 13.3-9.4l7.3-1c4.5-0.7 6.9-1.1 7.3-1.2 0.4-0.1 0.7-0.3 1.1-0.8l0.6 0.4c1.8-1.5 2.8-2.2 2.9-2.3zm29.1-3.4c0 2.2-2.1 5-6.5 8.2-3.7 2.7-6.7 4.4-8.9 4.9-1.3 0.3-2.9 0.2-4.9-0.4-2.3-0.6-3.4-1.6-3.4-2.9 0-0.7 1.4-2.8 4.2-6.3 0.7-0.6 1.5-1 2.3-1.2 0.6-0.5 1-0.9 1.3-1.2 3.7-2.2 7.1-3.7 10-4.4 4-0.9 5.9 0.2 5.9 3.3zm6.5-0.2c0-0.3-0.5-1.7-1.4-4.1-1.8-4.9-5.9-6.6-12.2-5.1 0 0-0.8 0.3-1.9 0.7-1.3 0.4-1.9 0.6-2.1 0.7-0.5 0.4-0.9 0.7-1.2 0.9l-2.5 0.7c-2.9 1.9-5.5 3.8-7.7 5.6l-3.1 2.2c-1.6 1.1-2.6 2.1-3 2.9-0.3 0.6-0.7 1.7-1.2 3.4-0.5 1.8-0.7 2.8-0.7 3.2 0 0.1 0.1 0.7 0.5 1.5 0.4 0.9 0.6 1.4 0.6 1.5 0.5 2.4 2.6 4.2 6.3 5.3 3.4 0.9 6.4 1.1 9 0.5 0.7-0.4 1.6-0.8 2.8-1.3 3.1-1.6 6-3.2 8.6-5.2 3.6-2.7 6-5 7.3-6.8 1.3-1.9 1.9-4 1.9-6.6zm-603.4 193.7c0-3.4-0.8-4.9-2.5-4.5-1.2 0.3-2.7 2.2-4.4 5.8-3.4 6.6-5.1 18.3-5.1 35 0 3.9 0.2 6.3 0.6 7 0.6 0.4 1.1 0.8 1.6 1 0.7-0.7 1.2-1.2 1.5-1.5 1.5-7.4 2.6-13.5 3.4-18.4 0.6-3.2 0.9-5 0.9-5.4 0.7-2.2 1.5-5.9 2.6-11.1 0.9-4.9 1.4-7.5 1.4-7.9zm95.2-11.3c0 1.3-0.9 3.1-2.8 5.3-4.1 4.7-8.3 8.5-12.8 11.5-2.6 1.9-7.2 4.8-13.7 8.9-7.7 4.7-12.1 7.2-13.3 7.5-0.1 0.1-0.5 0-1 0-0.2-1.2-0.4-2.3-0.6-3.1-0.2-1.2-0.3-1.9-0.3-2.2l0.5-10.3c0.1-1.7 0.4-4.7 0.9-8.9 0.4-3.5 0.6-5.5 0.6-6 0.1-1-0.2-2.3-0.6-3.8-0.5-0.4-0.9-0.7-1.3-0.9-0.4-0.4-0.6-1-0.6-1.5 4.5-1.7 8.7-3 12.7-4 0.6-0.4 0.9-0.7 1.3-0.7 0.1-0.1 0.5 0 1.2 0.1 7.9-1.5 13.6-2.1 16.9-2.1 2.3 0.1 4.6 0.6 6.6 1.6 3.2 1.6 5.1 3.3 5.6 5.2 0 0.2 0.2 0.3 0.3 0.3 0 0.1 0 0.7 0.2 1.6 0.1 1 0.2 1.5 0.2 1.5zm-34.2 36.5c3.2-2.2 5.8-3.8 7.5-4.9 1.1-0.6 5.6-3.8 9.4-5.9 1.1-0.7 12.3-7.5 18.9-16.7l0.8-0.7c1.9-2 2.8-3.7 2.8-5.3 0-0.1 0-0.2-0.1-0.3 0.3-0.4 0.5-0.7 0.7-0.9 0.3-3.7 0.4-5.2 0.4-4.5 0-0.4-0.2-1.4-0.8-2.9-0.5-1.2-0.9-2-1.2-2.5-1-2.4-3.6-4.4-7.6-5.9-4-1.5-7.7-2.1-10.9-2-1.8 0.1-3.6 0.4-5.4 0.7-0.3 0-1.1 0.1-2.3 0-1.2 0-1.8 0-1.9 0l-22.5 5.4c-2.1 0.5-5.4 1.9-10.2 4.4-3.5 1.8-5.6 2.9-6.2 3.5-1.7 1.3-2.6 2.5-2.6 3.6 0 0.3 0.4 0.7 1.2 1.3 0.8 0.8 1.4 1.1 2 1 0.2-0.1 2.4-1.1 6.9-3.2 4.5-2.1 6.8-3.2 6.9-3.2 0.5-0.1 0.9 0 1.5 0.2-0.4 0.5-0.8 0.7-1 0.9-0.9 3.2-1.3 4.9-1.3 5.1-0.1 0.6-0.1 1.1 0.1 1.5-0.3 0.5-0.5 0.9-0.5 1.2 0 1.5-0.3 4.6-0.8 9.4-0.4 3.7-0.7 5.7-0.7 6.1 0 1.1 0.6 6 1.5 14.4-0.9 0.6-2.1 1.3-3.8 2-1.2 0.5-2.7 1.1-4.7 1.8-0.5 0.4-0.9 0.6-1.2 0.7-0.1 0-0.3 0-0.4 0-0.2 0-0.3-0.1-0.4-0.1-1.9 1.3-2.8 2.3-2.8 3.3 0 0.9 0.2 1.5 0.6 2 0.4 0.4 1.2 0.8 2.3 1 1.1 0.3 1.9 0.4 2.4 0.3 3.2-0.8 8.2-2.9 15-6.5 2.2-1.2 4.4-2.3 6.6-3.7 0.8-0.3 1.4-0.5 1.8-0.6zm66.9-27.7c-0.4 0.8-1.9 1.4-4.2 2l-11.2 2.7c-0.2 0.1-0.3-0.1-0.3-0.5 0-0.4 0.5-1.1 1.6-2.1 1.1-1 2-1.6 2.7-1.9 2.7-1.1 6.4-2.3 8.9-3.2 1.1 0.3 1.7 0.6 1.8 0.7 0.2 0.8 0.5 1.6 0.7 2.3zm6.5-4.1c-1.3-1.4-2.4-2.5-3.7-3.3-1.5-1-3.9-1.2-7-0.4-9.7 2.3-16 6.9-19.2 13.9-0.4 0.9-0.7 2.3-0.7 4.1 0 1.4 0.7 2.8 2.2 4.2 1.5 1.4 3.1 2.2 5 2.4 1.3 0.4 2.2 0.7 2.7 0.8 1.6 0.3 2.8 0.4 3.4 0.3 0.2-0.1 1.3-0.3 3.4-0.6 2-0.3 3.1-0.5 3.2-0.5-0.3 0 0.5-0.2 2.2-0.8 0.8-1 1.3-1.6 1.3-1.6 1.6-1.2 2.5-2 2.5-2.3 0-0.9-1.4-1.3-4-1-2 0.3-3.4 0.5-4.2 0.7-7.4 1.2-10.1-0.7-10.1-1.3 0 0 0.2-0.2 0.5-0.6 0.9-0.2 1.5-0.2 1.7-0.1 2.2-1 6.6-1.8 6.4-1.8l5.7-1.7c3.9-1.1 6.3-2.2 7.5-2.5 0.7-0.5 1.2-1.9 1.3-4 0.2-1.9 0.1-3.2-0.1-3.9zm41.5-12.4c0-0.7-0.5-1.3-1.4-1.8-3.2 1.8-5.8 3.2-7.8 4.6-1.3 1.3-2.2 2.2-2.6 2.8-2.4 2-4.3 3.5-5.7 4.6-0.4 0.5-1.5 1.5-3.2 3-1.7 1.4-2.8 2.1-3 2.2-0.5 0.1-2.1-1.7-4.8-5.3-2.7-3.6-4.3-5.4-4.6-5.3-0.9 0.2-1.8 1.7-2.8 4.6 0 0.3 0.2 0.7 0.5 1 0.1 0.3 0.4 0.4 0.6 0.6 1.5 3.6 3.7 7.4 6.7 11.7 0.2 0.3 0.9 0.7 2.1 1.2 1.2 0.6 2 0.8 2.4 0.7 0.7-0.2 6.6-5.7 17.6-16.6 0-0.4 0-0.7 0.1-1 2.9-2.9 4.6-4.6 5.1-5.2 0.5-0.7 0.8-1.3 0.8-1.8zm79.6-37.5c0-0.7-0.4-2.2-1.3-4.6-0.2-0.6-0.8-1-1.9-1.5-1.5-0.4-2.6-0.5-3.1-0.5-2.5-0.4-5.3-0.1-8.5 0.6-3.2 0.8-5 1.2-5.5 1.4-1.7 0.7-2.9 1.2-3.6 1.5-1.6 0.5-2.9 1.3-4.2 2.4-9.4 8.8-14.5 19-15.1 30.8-0.1 2.1-0.7 3.6-1.7 4.5-0.4 0.3-1.2 0.6-2.3 0.9-0.1 0-0.2 0-0.4 0-0.1 0-0.2-0.1-0.3-0.1-0.2 0.1-1 0.5-2.4 1.2-0.4 0.2-0.9 0.8-1.5 1.7-0.7 0.9-1 1.5-1 2 0 0.9 0.3 1.7 1 2.3 0.6 0.7 1.4 0.9 2.3 0.6 0.2 0 2.3-0.9 6.4-2.7l2.6 3.8c1.8 2.5 3.5 3.7 5.1 3.3 0.3-0.1 0.7-0.7 1.3-1.8 0.6-1.2 0.8-1.9 0.8-2.4 0-0.4-0.5-1.1-1.7-2-0.7-1.6-1.2-2.8-1.2-3.7 4.3-2.5 7.6-4.4 9.7-5.8 4-1.6 7.1-2.8 9.2-3.6 0.9-0.5 1.9-1.4 2.9-2.5 1-1.1 1.6-2 1.6-2.6-1-0.3-1.9-0.3-3-0.1-2.4 0.6-5.8 1.7-9.9 3.4-6.5 2.6-9.6 3.8-9.1 3.7-0.9 0.2-1.7 0.3-2.3 0.2 0-0.3-0.1-0.8-0.2-1.7-0.1-0.8-0.1-1.2-0.1-1.3 0-2 0.6-4.9 2-8.6 1.2-3.6 2.3-5.8 3.1-6.8 4.2-5.2 7.8-8.2 10.8-9.4 0.1 0 0.7-0.2 1.7-0.7 1-0.4 1.7-0.7 1.8-0.7 4.7-1.2 8.1-1.4 10.4-0.7 0.8 0.2 2 0.9 3.5 1.9 1.3 0.9 2 1.3 2.2 1.3l1.7-0.7c-0.4 0.2-0.6 0.1-0.5-0.2 0.3-0.4 0.5-0.7 0.5-0.9 0.1-0.3 0.2-0.9 0.2-1.9zm21.9 17.8c0 2.2-2.1 5-6.5 8.1-3.7 2.8-6.7 4.5-8.9 5-1.3 0.3-2.9 0.2-4.9-0.4-2.2-0.6-3.4-1.6-3.4-2.9 0-0.8 1.4-2.9 4.2-6.3 0.7-0.6 1.5-1 2.4-1.2 0.5-0.6 0.9-0.9 1.2-1.2 3.8-2.3 7.2-3.7 10-4.4 4-1 5.9 0.2 5.9 3.3zm6.5-0.2c0-0.3-0.4-1.7-1.3-4.1-1.9-4.9-6-6.6-12.3-5.1 0 0-0.7 0.3-1.9 0.7-1.2 0.4-1.9 0.6-2.1 0.7-0.5 0.4-0.9 0.6-1.2 0.8l-2.4 0.8c-3 1.9-5.6 3.8-7.8 5.6l-3.1 2.2c-1.5 1.1-2.6 2.1-3 2.9-0.3 0.6-0.7 1.7-1.1 3.4-0.6 1.7-0.8 2.8-0.8 3.2 0 0.1 0.2 0.6 0.6 1.5 0.3 0.9 0.5 1.4 0.5 1.5 0.5 2.4 2.6 4.2 6.4 5.3 3.3 0.9 6.3 1.1 8.9 0.5 0.7-0.4 1.6-0.8 2.8-1.4 3.1-1.5 6-3.2 8.6-5.1 3.6-2.7 6-5 7.3-6.8 1.3-1.9 1.9-4 1.9-6.6zm48.3-16.6c-0.3-0.1-0.4-0.9-0.4-2.3l-3.3 0.4c-0.3-0.2-0.5-0.3-0.6-0.4-10.4 0.7-16.1 1.2-16.9 1.4-2.5 0.6-4.8 1.6-6.8 3-2.5 1.8-4.3 3.2-5.5 4.2 0 0-0.4 0.4-1.1 1.1-0.8 0.9-1.3 1.3-1.4 1.3-0.2 0.1-0.5 0-1 0-0.5-0.2-0.9-0.2-0.9-0.2-0.9 0.2-2 1.8-3.2 4.7-0.1 1.7-0.3 3.9-0.6 6.9-0.3 2.4-0.4 3.9-0.5 4.5 0 2.9 1.1 4.1 3.5 3.5 1-0.2 2-0.7 2.9-1.2 0.5-2.5 0.8-4.5 0.8-5.9 0.3-0.4 0.6-0.7 0.7-0.9 0.6-2.8 1.2-4.6 1.8-5.8 2.6-4.7 7-7.8 13.3-9.3l7.3-1.1c4.5-0.7 6.9-1.1 7.2-1.1 0.4-0.1 0.8-0.4 1.2-0.8l0.6 0.3c1.8-1.4 2.8-2.2 2.9-2.3zm57 3.8c0-0.2-0.3-0.4-0.8-0.8-1.2-0.3-3.3-1.3-6.3-3.1-2.6-1.6-4.2-2.4-4.6-2.2-1.9 0.4-4.4 1.5-7.5 3.3-3.2 1.8-4.5 2.6-4.1 2.6-1.4 0.3-2.1 0.1-2.2-0.5 1.2-1.4 2.8-2.9 4.9-4.4 1.7-1.1 3.3-1.9 4.9-2.3 1.4-0.3 3.5-0.1 6.1 0.7 1.2-1 1.9-2.1 1.9-3.2 0-0.6-0.4-1.4-1.2-2.5-0.8-1.1-1.3-1.7-1.9-1.8-1.7-0.2-3.1-0.1-4.2 0.1-3.8 0.9-8 3.3-12.5 7.2-1 0.7-1.7 1.1-2 1.4-1 0.7-1.7 1.4-1.9 1.9-0.8 2.4-1.3 4.4-1.3 5.7 0 1 0.5 2 1.4 3.1 2.6 1.7 4.7 2.4 6.5 1.9 1.5-0.3 2.9-0.9 4.2-1.6 0.5-0.3 1.7-1.2 3.8-2.6 1.6-1.1 2.9-1.8 3.7-2 0.1 0 1.3 0.4 3.7 1.1 4 1.1 6.3 1.7 7.2 1.7 0.5-0.2 1.1-0.6 1.5-1.4 0.5-0.7 0.7-1.5 0.7-2.3zm82.1-27l-5.2-0.3c-1.1 0.3-3.6 0.8-7.4 1.6-3.8 0.8-5.5 1.2-5.1 1 0 0.1-0.6 0.3-1.7 0.9-1.1 0.5-1.7 0.8-1.8 0.9-0.2 0-0.5 0-1.1 0-0.7 0.1-1.1 0.1-1.1 0.2l-10.2 3.4c-6.5 2.2-9.9 3.4-10.2 3.5-4.4 1-6.6 0.8-6.6-0.8 0-0.8 0.4-2.7 1.2-5.9 0.9-2 1.6-3.5 2.2-4.6 0.4-1.5 0.7-2.7 0.9-3.6 2.8-6.9 4.9-12.1 6.4-15.6 0.6-1 1.1-1.9 1.6-2.5 1.8-3.7 2.9-6 3.2-6.8 1.1-1.7 2-3 2.7-4 0.1-0.6 0.1-1 0.1-1.4 0 0.1-0.2-1-0.7-3.4-0.5-0.5-1-0.7-1.5-0.6-0.9 0.2-1.9 1.2-2.9 3l-2.4 3.8c-0.5 0.6-0.9 1.1-1.3 1.4-4.3 8.7-6.7 13.9-7.3 15.5-1.7 4.2-2.9 7.7-3.8 10.1-0.6 1.2-1 2-1.3 2.4-1.3 4.6-2.4 8-3.2 10.2-0.2 1.5-0.3 2.5-0.4 3.2 0 0.4-0.3 2-0.9 4.6 0 0.7 0.7 1.5 2.1 2.4 0.9 0.5 2 0.9 3.3 1 2.6 0.3 4.8 0.2 6.6-0.2 3.1-0.8 6.1-1.7 9.2-2.8 1.2-0.5 2.6-1.1 4.2-1.9 2-0.6 6.2-2.1 12.5-4.3 6.2-2.2 10.4-3.6 12.6-4.1 0.8-0.2 2.2-0.8 4.1-1.8 1.3-1.5 2.4-2.4 3.2-3.1zm6.1-12.4c-0.4-1.3-1-1.9-2-1.6-0.8 0.2-1.5 0.7-2.1 1.6-0.7 3.3-1.1 7.1-1.5 11.2-0.2 2.6-0.3 4.1-0.2 4.3 0.1 0.3 0.5 0.9 1.2 1.9 0.5 0.7 0.8 1.3 0.7 1.8 1.6 0.2 2.5 0.2 2.9 0.1l0.8-0.4c0.5-2.2 0.8-3.5 0.7-3.7-0.2-9.9-0.4-15-0.5-15.2zm2.1-14.9c0-1.2-0.3-2.5-1-3.7-1.4 0.5-2.3 0.9-2.7 1-0.9 1.7-1.3 3.1-1.3 4.2 0 1.1 1 1.8 3.1 1.9 1.3-1.8 1.9-2.9 1.9-3.4zm41.2 4.1c0-0.7-0.5-1.3-1.4-1.7-3.2 1.7-5.8 3.2-7.8 4.5-1.3 1.3-2.2 2.3-2.7 2.8-2.4 2.1-4.2 3.6-5.6 4.6-0.5 0.6-1.6 1.6-3.3 3-1.7 1.5-2.7 2.2-3 2.2-0.4 0.1-2-1.6-4.7-5.2-2.7-3.6-4.3-5.4-4.6-5.3-0.9 0.2-1.8 1.7-2.9 4.6 0 0.3 0.2 0.6 0.5 1 0.2 0.2 0.4 0.4 0.6 0.6 1.5 3.5 3.8 7.4 6.7 11.7 0.2 0.3 0.9 0.7 2.2 1.2 1.2 0.5 2 0.7 2.4 0.6 0.7-0.1 6.5-5.6 17.5-16.5 0.1-0.4 0.1-0.8 0.1-1 3-3 4.7-4.7 5.2-5.2 0.5-0.7 0.8-1.3 0.8-1.9zm10.2-2c-0.4-1.4-1.1-1.9-2.1-1.7-0.8 0.2-1.5 0.8-2.1 1.6-0.6 3.4-1.1 7.1-1.4 11.2-0.3 2.7-0.4 4.1-0.3 4.4 0.1 0.3 0.5 0.9 1.2 1.8 0.6 0.8 0.8 1.3 0.8 1.8 1.5 0.2 2.4 0.3 2.8 0.1l0.8-0.4c0.5-2.2 0.8-3.4 0.7-3.7-0.2-9.9-0.4-14.9-0.4-15.1zm2-14.9c0-1.3-0.3-2.6-0.9-3.8-1.5 0.6-2.4 0.9-2.8 1.1-0.9 1.6-1.3 3-1.3 4.1 0 1.2 1.1 1.8 3.2 1.9 1.2-1.7 1.8-2.8 1.8-3.3zm36.8 20.3c0-4.7-0.6-8.4-1.8-11-1-1.4-1.8-2.6-2.4-3.2-2.5-2.6-4.9-3.6-7-3.1-0.1 0.1-2.1 1.4-5.9 4-3.7 2.6-5.7 4-5.8 4-0.3 0.1-0.9-0.2-1.8-0.6-0.8-0.5-1.3-0.9-1.4-1.2-0.1 0-0.4 0.1-1 0.4-0.6 0.3-0.9 0.4-0.9 0.4-1 2.1-1.6 3.4-1.7 3.9-0.2 0.8-0.3 1.5-0.3 1.9-0.9 2.1-1.4 3.4-1.4 4 0 1.5 0.5 2.9 1.3 4.3 1.1 1.7 2.4 2.3 3.9 2 0.6-0.2 2.2-2.1 4.8-5.9 2.5-3.3 4-5.3 4.8-6.1 1.2-1 2.1-1.6 2.7-2.1 1.1-0.8 2-1.4 2.8-1.6 0.8-0.2 1.3-0.2 1.5 0.1 1.4 4 2.2 7.1 2.2 9.2 0 1.9 0.5 3.6 1.8 5.2 0.4 0 1 0.1 1.9 0.3 0.8 0.2 1.3 0.3 1.5 0.2 1.5-0.3 2.2-2 2.2-5.1zm27.5 4.3c0.1 2.9-0.4 5.6-1.2 8.1-0.6 1.7-1.5 3.5-2.9 5.6-0.9 1.4-2.4 3-4.5 5-2.3 2.3-3.9 3.6-4.9 3.8-0.1 0-0.6 0.2-1.7 0.6-1.2 0.5-1.8 0.7-1.9 0.7-2.6 0.6-4.9 0.8-7 0.6-1.9-0.6-3.4-1.3-4.5-1.8-3-0.9-4.5-2.2-4.5-4 0-1.3 1.6-3 4.9-5l2.6-2c5.2-2.5 8.2-4 8.9-4.4 2.1-1.1 3.9-2.1 5.6-3.2 1.5-0.6 2.7-1 3.5-1.3 0.7-0.4 1.2-0.8 1.6-1.2 1.3-0.7 2.6-1.2 3.8-1.5 0.5-0.1 1.3-0.1 2.2 0zm6.7-4.3c0-0.1-0.2-0.6-0.5-1.7-0.3-1.1-0.4-1.8-0.5-2l0.2-0.2c0.1-0.1 0.2-0.8 0.2-2v-2c0-0.2-0.4-1.8-0.9-4.9-0.5-2.7-1.7-5-3.9-6.9-0.4-0.5-1.1-0.5-2.1-0.2-2.7 0.6-4.4 1.1-5.2 1.6-2.4 1.4-4.4 2.2-6 2.4 0-0.6 1.6-1.9 4.6-3.7 3.1-1.8 5.5-2.9 7.2-3.3 0.9-0.2 2.4-0.4 4.4-0.6 0.6-1.2 1-2 1.1-2.1 0-1.1-0.7-1.8-1.8-2.1-0.9 0.1-1.7 0.2-2.2 0.4-0.6-0.2-1.2-0.2-2 0-3.6 0.9-6.4 1.8-8.1 2.9-2.4 1.1-3.8 1.8-4.1 1.9-2.2 1.1-3.7 2.5-4.7 4.2-1 1.9-1.5 3.6-1.5 5 0 1.2 0.6 2 1.8 2.6 1.1 0.6 2.5 0.8 4.1 0.4 0.1 0 0.4 0 0.7 0.1 0.3 0 0.6 0.1 0.6 0.1 0.9-0.2 3.2-1.3 6.9-3.1 0.6-0.3 1.6-0.6 2.8-0.8 1.5 1.8 2.3 4.1 2.6 6.6 0 0.4 0 0.7 0.1 0.7 0-0.1 0-0.2 0.1-0.2 0.1-0.1 0.1 0 0.1 0.3v5.4c0 1.4-0.3 2.4-0.7 2.7-4.9 1.3-10.6 3.3-17.3 6.2-3.7 1.5-7.4 3.1-11.3 4.6-7 3.7-10.4 7.3-10.4 10.8 0 2.9 0.4 5 1.2 6.3 1.4 2.1 4 3.8 7.9 5.1 4.1 1.4 8 1.7 11.8 0.7 2.7-0.6 5.8-2.3 9.3-5.2 3.4-2.7 6.4-6 9-9.8 3.2-6.9 5-13 5.5-18.1 0-0.1 0.2-0.4 0.5-1 0.3-0.6 0.5-1 0.5-1.1z"/>
	</g>
</svg>