<?xml version="1.0" encoding="UTF-8"?>
<svg width="24" height="24" viewBox="0 0 24 24" fill="currentColor" xmlns="http://www.w3.org/2000/svg">
  <path d="M17.523 15.3414c-.5511 0-1.0001.449-1.0001 1 0 .5511.449 1 1.0001 1 .551 0 1-.4489 1-1 0-.551-.449-1-1-1zm-11.046 0c-.551 0-1 .449-1 1 0 .5511.449 1 1 1 .5511 0 1.0001-.4489 1.0001-1 0-.551-.449-1-1.0001-1zm11.4045-6.02l1.9971-3.4592a.416.416 0 00-.1521-.567.416.416 0 00-.567.152L17.1478 8.82c-1.0221-.615-2.2219-.958-3.4948-.958-1.273 0-2.4727.343-3.4948.958l-1.9971-3.4592a.416.416 0 00-.567-.152.416.416 0 00-.152.567L6.1185 9.321c-1.153 2.312-1.153 5.166 0 7.478l-1.9972 3.459a.416.416 0 00.152.567.416.416 0 00.567-.152l1.9971-3.459c1.0221.615 2.2219.958 3.4948.958 1.273 0 2.4727-.343 3.4948-.958l1.9971 3.459a.416.416 0 00.567.152.416.416 0 00.152-.567l-1.9972-3.459c1.153-2.312 1.153-5.166 0-7.478zm-1.301 6.728c-.9049.543-1.9692.847-3.0787.847-1.1095 0-2.1738-.304-3.0787-.847-.9048-.543-1.6363-1.32-2.1227-2.253-.4864-.933-.708-1.987-.708-3.075 0-1.088.2216-2.142.708-3.075.4864-.933 1.2179-1.71 2.1227-2.253.9049-.543 1.9692-.847 3.0787-.847 1.1095 0 2.1738.304 3.0787.847.9048.543 1.6363 1.32 2.1227 2.253.4864.933.708 1.987.708 3.075 0 1.088-.2216 2.142-.708 3.075-.4864.933-1.2179 1.71-2.1227 2.253z"/>
</svg> 