<svg width="330" height="65" viewBox="0 0 330 65" fill="none" xmlns="http://www.w3.org/2000/svg">
<path d="M42.5426 50.3783C40.2532 48.4658 39.1084 45.8688 39.1084 42.5873C39.0702 41.1367 39.3368 39.6943 39.8907 38.3541C40.4447 37.014 41.2735 35.8062 42.3233 34.8096C44.4549 32.7531 47.6522 31.3856 51.9153 30.707L62.9326 28.9443V27.6884C62.9502 26.9173 62.7908 26.1525 62.4668 25.4533C62.1428 24.7541 61.6628 24.1392 61.0642 23.6563C59.8143 22.6075 58.1739 22.0831 56.1301 22.0831C54.3233 22.0529 52.5522 22.5906 51.0644 23.6211C49.5689 24.5854 48.3968 25.9796 47.7004 27.6223L40.5558 24.1322C41.6851 21.1603 43.7994 18.6702 46.5425 17.0816C49.5418 15.286 52.9815 14.3701 56.4722 14.4376C59.2293 14.3842 61.9632 14.9534 64.4721 16.1033C66.6957 17.1231 68.5837 18.7588 69.915 20.8184C71.2148 22.8692 71.8887 25.2574 71.8536 27.6884V49.378C71.8536 49.7788 71.7749 50.1757 71.6221 50.546C71.4693 50.9162 71.2454 51.2526 70.9631 51.5358C70.6808 51.819 70.3457 52.0436 69.9769 52.1965C69.6082 52.3495 69.2131 52.428 68.8141 52.4274H63.4195V48.4614C60.516 51.6518 56.6608 53.2456 51.8539 53.2426C47.9504 53.2456 44.8467 52.2908 42.5426 50.3783ZM49.7881 45.2886C50.8486 46.0726 52.1437 46.469 53.4591 46.4123C56.2281 46.4123 58.4956 45.531 60.2616 43.7683C61.1284 42.9235 61.8117 41.9075 62.2683 40.7843C62.725 39.6611 62.9452 38.455 62.9151 37.242V35.7526L53.5951 37.3258C51.8407 37.693 50.5249 38.2805 49.6478 39.0884C49.213 39.4911 48.8703 39.9836 48.6431 40.5321C48.416 41.0806 48.3098 41.672 48.332 42.2656C48.3202 42.851 48.4478 43.4308 48.7041 43.9566C48.9604 44.4824 49.3381 44.9391 49.8056 45.2886H49.7881Z" fill="white"/>
<path d="M125.343 62.1547C122.338 60.2643 120.518 57.8009 119.15 54.6281L126.755 51.7506C127.48 53.3746 128.675 54.7413 130.185 55.6725C131.881 56.7106 133.84 57.2311 135.825 57.1708C138.421 57.1708 140.53 56.4363 142.149 54.9674C143.769 53.4986 144.576 51.4803 144.57 48.9127V45.0701C142.062 47.8521 138.668 49.2417 134.391 49.2388C131.317 49.2784 128.289 48.4919 125.619 46.9605C123.038 45.4823 120.913 43.3169 119.479 40.7031C117.992 37.9692 117.236 34.8946 117.286 31.7796C117.219 28.181 118.24 24.6468 120.216 21.6443C121.35 19.954 122.798 18.4985 124.479 17.3566C127.351 15.4084 130.746 14.3876 134.211 14.4306C139.913 14.4306 142.72 17.0085 144.259 22.0673H145.013L145.04 18.2643C145.04 17.4556 145.359 16.68 145.929 16.1081C146.498 15.5362 147.27 15.2149 148.075 15.2149H153.07V48.9127C153.117 51.8319 152.358 54.7072 150.877 57.2193C149.406 59.6695 147.278 61.6546 144.737 62.9479C141.975 64.3486 138.914 65.0519 135.821 64.997C131.838 64.9911 128.346 64.0437 125.343 62.1547ZM128.715 38.6364C129.586 39.5297 130.632 40.2313 131.788 40.6963C132.943 41.1614 134.182 41.3798 135.426 41.3376C136.647 41.3793 137.864 41.1632 138.997 40.7033C140.13 40.2433 141.155 39.5497 142.005 38.6672C143.712 36.8869 144.566 34.6072 144.566 31.8281C144.566 29.0489 143.702 26.7575 141.974 24.9537C141.131 24.0671 140.112 23.3681 138.984 22.902C137.855 22.436 136.641 22.2131 135.421 22.248C134.181 22.2134 132.946 22.4389 131.797 22.91C130.648 23.3812 129.609 24.0877 128.746 24.9845C127.867 25.887 127.179 26.9581 126.721 28.1339C126.264 29.3098 126.047 30.5662 126.084 31.8281C126.046 33.0822 126.259 34.3313 126.711 35.5009C127.163 36.6705 127.845 37.7368 128.715 38.6364Z" fill="white"/>
<path d="M306.785 6.2713C307.485 6.23395 308.182 6.38949 308.801 6.72112C309.419 7.05274 309.935 7.54785 310.294 8.15295L316.456 18.5086L317.619 16.5564C317.874 16.1835 318.015 15.7439 318.025 15.2915C318.035 14.8391 317.914 14.3935 317.676 14.0094L315.022 9.41766L319.224 2.367C319.561 1.64816 320.097 1.04243 320.769 0.622627C321.44 0.202829 322.218 -0.0131632 323.009 0.000620877H330L311.25 31.3849C310.924 32.132 310.385 32.7656 309.702 33.2062C309.018 33.6467 308.22 33.8747 307.408 33.8614H300.426L308.378 20.5445L299.9 6.2713H306.785Z" fill="white"/>
<path d="M40.552 14.397L19.8243 64.9899H9.67968L14.9121 52.4045L0 14.397H8.41215C8.91788 14.3978 9.41117 14.5546 9.82532 14.8462C10.2395 15.1378 10.5545 15.5501 10.7279 16.0275L19.8286 41.0617H20.7058L29.8241 16.0275C29.9977 15.5494 30.3135 15.1366 30.7285 14.8449C31.1435 14.5533 31.6378 14.3969 32.1443 14.397H40.552Z" fill="white"/>
<path d="M83.0568 15.2739C83.8478 15.2739 84.6064 15.5896 85.1657 16.1516C85.725 16.7135 86.0392 17.4757 86.0392 18.2704L86.0655 22.069H86.8243C88.7058 15.9569 91.9997 14.6746 98.7803 14.6746C106.973 14.6746 113.17 20.5883 113.17 30.2477V52.4088H103.785V31.1423C103.785 25.9777 100.802 22.9106 95.4514 22.9106C89.4164 22.9106 86.2147 26.6519 86.2147 33.2399V52.4088H76.7981V15.2739H83.0568Z" fill="white"/>
<path d="M158.266 7.72047C158.267 5.67247 159.077 3.70875 160.519 2.26101C161.961 0.813264 163.916 -3.33188e-07 165.954 0H176.309V8.08623H169.731C168.384 8.08623 167.643 8.83536 167.643 10.3336V15.2735H176.309V23.3553H167.669V52.404H158.266V7.72047ZM181.068 0V52.4084H190.454V3.05382C190.454 2.24389 190.134 1.46714 189.564 0.894442C188.994 0.321741 188.221 0 187.414 0H181.068Z" fill="white"/>
<path d="M214.772 13.6189C225.645 13.6189 234.14 21.5509 234.14 33.233C234.14 44.915 225.645 52.8514 214.772 52.8514C203.899 52.8514 195.395 44.9194 195.395 33.233C195.395 21.5465 203.891 13.6189 214.772 13.6189ZM214.772 44.4656C220.728 44.4656 224.754 39.9752 224.754 33.2374C224.754 26.4996 220.728 22.0092 214.772 22.0092C208.816 22.0092 204.785 26.4952 204.785 33.233C204.785 39.9708 208.807 44.4612 214.772 44.4612V44.4656Z" fill="white"/>
<path d="M242.996 15.2702C243.587 15.2707 244.159 15.4837 244.608 15.8708C245.057 16.258 245.353 16.7936 245.443 17.381L249.522 44.319H250.399L256.21 15.2702H269.18L274.991 44.319H275.868L279.943 17.381C280.033 16.7936 280.329 16.258 280.778 15.8708C281.227 15.4837 281.798 15.2707 282.39 15.2702H289.653L282.346 52.4052H268.947L263.136 23.3521H262.259L256.447 52.4008H243.022L235.715 15.2702H242.996Z" fill="white"/>
</svg>
